<svg width="607" height="152" viewBox="0 0 607 152" fill="none" xmlns="http://www.w3.org/2000/svg">
<path d="M265.273 66.4657L266.591 66.9245L261.956 91.0429H220V88.6179H222.038C224.329 88.6179 225.967 87.3945 226.953 84.9477C227.512 83.5496 227.792 80.3163 227.792 75.248V17.9012C227.792 12.3523 227.419 8.87869 226.673 7.48052C225.634 5.55804 224.089 4.5968 222.038 4.5968H220V2.17185H244.534V4.5968C241.657 4.5531 239.633 4.99003 238.461 5.90758C237.315 6.82513 236.529 7.98298 236.103 9.38115C235.677 10.7793 235.464 14.1218 235.464 19.4086V75.248C235.464 78.8745 235.677 81.3649 236.103 82.7194C236.423 83.637 236.916 84.3142 237.582 84.7511C238.248 85.1881 240.325 85.4065 243.815 85.4065H247.771C251.927 85.4065 254.844 84.9041 256.522 83.8991C258.2 82.8942 259.732 81.1246 261.117 78.5905C262.502 76.0126 263.888 71.971 265.273 66.4657Z" fill="black"/>
<path d="M307.429 4.5968V2.17185H326.609V4.5968H324.571C322.44 4.5968 320.802 6.0605 319.656 8.98792C319.097 10.3424 318.817 13.4883 318.817 18.4255V54.4721C318.817 63.3854 318.271 70.3107 317.179 75.248C316.113 80.1415 313.995 84.3579 310.825 87.897C307.682 91.3924 303.393 93.1401 297.959 93.1401C292.045 93.1401 287.556 91.458 284.493 88.0936C281.429 84.7293 279.258 80.2071 277.98 74.527C277.127 70.6384 276.701 63.3417 276.701 52.637V17.9012C276.701 12.4396 276.235 8.85684 275.302 7.15282C274.397 5.4488 272.918 4.5968 270.867 4.5968H268.829V2.17185H292.245V4.5968H290.167C287.929 4.5968 286.331 5.75465 285.372 8.07037C284.706 9.64331 284.373 12.9203 284.373 17.9012V56.6349C284.373 60.0866 284.559 64.0408 284.932 68.4974C285.332 72.9541 286.038 76.4277 287.05 78.9182C288.062 81.4086 289.514 83.4622 291.406 85.0788C293.324 86.6955 295.668 87.5038 298.438 87.5038C301.981 87.5038 305.151 86.2367 307.948 83.7025C310.745 81.1683 312.65 77.9351 313.662 74.0027C314.701 70.0267 315.221 63.3198 315.221 53.8822V17.9012C315.221 12.3523 314.848 8.87869 314.102 7.48052C313.063 5.55804 311.518 4.5968 309.467 4.5968H307.429Z" fill="black"/>
<path d="M361.013 91.0429L340.075 16.2628V75.6412C340.075 81.1028 340.435 84.5108 341.154 85.8653C342.139 87.7004 343.698 88.6179 345.829 88.6179H347.747V91.0429H328.887V88.6179H330.805C333.096 88.6179 334.72 87.4819 335.68 85.2099C336.266 83.8117 336.559 80.6222 336.559 75.6412V17.5735C336.559 13.6412 336.292 10.8012 335.759 9.05346C335.386 7.78637 334.694 6.73774 333.682 5.90758C332.696 5.03372 331.098 4.5968 328.887 4.5968V2.17185H344.231L363.89 71.7088L383.23 2.17185H398.574V4.5968H396.696C394.378 4.5968 392.74 5.73281 391.781 8.00483C391.195 9.403 390.902 12.5926 390.902 17.5735V75.6412C390.902 81.1028 391.275 84.5108 392.021 85.8653C393.006 87.7004 394.565 88.6179 396.696 88.6179H398.574V91.0429H375.558V88.6179H377.476C379.794 88.6179 381.419 87.4819 382.351 85.2099C382.937 83.8117 383.23 80.6222 383.23 75.6412V16.2628L362.332 91.0429H361.013Z" fill="black"/>
<path d="M425.586 88.6179V91.0429H402.37V88.6179H404.288C406.526 88.6179 408.151 87.5475 409.163 85.4065C409.802 84.0084 410.122 80.644 410.122 75.3135V17.9012C410.122 13.4009 409.949 10.4298 409.602 8.98792C409.336 7.8956 408.79 6.9562 407.964 6.16974C406.792 5.12111 405.567 4.5968 404.288 4.5968H402.37V2.17185H425.586V4.5968H423.628C421.417 4.5968 419.805 5.66727 418.793 7.80821C418.127 9.20638 417.794 12.5707 417.794 17.9012V75.3135C417.794 79.8139 417.967 82.785 418.313 84.2268C418.58 85.3191 419.139 86.2585 419.992 87.045C421.137 88.0936 422.349 88.6179 423.628 88.6179H425.586Z" fill="black"/>
<path d="M426.505 2.17185H441.21L474.335 68.8251V17.5735C474.335 12.1119 473.962 8.70391 473.216 7.34944C472.231 5.51434 470.672 4.5968 468.541 4.5968H466.663V2.17185H485.523V4.5968H483.605C481.314 4.5968 479.689 5.73281 478.73 8.00483C478.144 9.403 477.851 12.5926 477.851 17.5735V92.4847H476.413L440.69 20.916V75.6412C440.69 81.1028 441.05 84.5108 441.769 85.8653C442.781 87.7004 444.34 88.6179 446.444 88.6179H448.362V91.0429H429.502V88.6179H431.38C433.697 88.6179 435.336 87.4819 436.295 85.2099C436.881 83.8117 437.174 80.6222 437.174 75.6412V13.8378C435.602 10.823 434.403 8.83499 433.578 7.87375C432.778 6.91251 431.593 6.01681 430.021 5.18665C429.249 4.79341 428.077 4.5968 426.505 4.5968V2.17185Z" fill="black"/>
<path d="M516.651 0.140137C523.684 0.140137 529.771 4.53126 534.912 13.3135C540.08 22.052 542.664 32.9752 542.664 46.0831C542.664 59.5841 540.067 70.7913 534.872 79.7046C529.677 88.6179 523.391 93.0746 516.012 93.0746C508.553 93.0746 502.279 88.7272 497.191 80.0323C492.13 71.3375 489.599 60.0866 489.599 46.2797C489.599 32.1669 492.529 20.6539 498.39 11.7406C503.478 4.00694 509.565 0.140137 516.651 0.140137ZM515.892 4.92449C511.043 4.92449 507.154 7.87375 504.224 13.7723C500.574 21.1127 498.75 31.8611 498.75 46.0175C498.75 60.5235 500.641 71.687 504.424 79.508C507.327 85.4502 511.163 88.4213 515.932 88.4213C521.02 88.4213 525.215 85.1662 528.519 78.656C531.848 72.1458 533.513 61.878 533.513 47.8526C533.513 32.6475 531.689 21.3093 528.039 13.8378C525.109 7.8956 521.06 4.92449 515.892 4.92449Z" fill="black"/>
<path d="M579.266 41.823L590.894 70.267C594.117 78.1317 596.501 83.1127 598.046 85.2099C599.618 87.2635 601.602 88.3995 604 88.6179V91.0429H580.744V88.6179C582.289 88.5742 583.435 88.3121 584.181 87.8315C584.74 87.4382 585.193 86.8484 585.539 86.0619C585.912 85.2318 586.099 84.4016 586.099 83.5714C586.099 82.5665 585.979 81.5616 585.739 80.5566C585.553 79.8139 584.82 77.8914 583.541 74.7892L574.351 51.9816L563.003 75.8378C561.804 78.372 561.085 80.076 560.845 80.9499C560.605 81.78 560.485 82.6539 560.485 83.5714C560.485 84.9696 560.845 86.1275 561.564 87.045C562.283 87.9625 563.655 88.4869 565.68 88.6179V91.0429H546.46V88.6179C547.819 88.3995 548.991 87.9407 549.976 87.2416C551.628 86.1056 553.2 84.5764 554.691 82.6539C556.183 80.7314 557.888 77.7821 559.806 73.8061L572.593 47.3283L561.924 21.7025C559.02 14.7554 556.556 10.2113 554.532 8.07037C552.507 5.88573 550.176 4.72787 547.539 4.5968V2.17185H572.593V4.5968C570.462 4.72787 568.996 5.29588 568.197 6.30081C567.425 7.30575 567.039 8.41991 567.039 9.64331C567.039 11.2599 567.678 13.6193 568.957 16.7215L577.268 37.1042L586.898 17.1148C588.017 14.7554 588.696 13.1387 588.936 12.2649C589.202 11.391 589.335 10.4953 589.335 9.57777C589.335 8.66022 589.175 7.85191 588.856 7.15282C588.456 6.23527 587.95 5.60173 587.337 5.25219C586.725 4.85895 585.459 4.64049 583.541 4.5968V2.17185H602.761V4.5968C601.243 4.72787 600.004 5.12111 599.045 5.7765C597.607 6.78143 596.288 8.13591 595.089 9.83993C593.891 11.5439 592.199 14.6898 590.015 19.2776L579.266 41.823Z" fill="black"/>
<path d="M223.75 99.8401L230.17 117.03L236.56 99.8401H240.13L231.76 121.14H228.58L220.18 99.8401H223.75ZM247.454 99.8401H250.634L258.914 121.14H255.374L253.124 115.35H244.904L242.684 121.14H239.114L247.454 99.8401ZM252.464 112.86L249.044 103.53L245.504 112.86H252.464ZM261.848 121.14V99.8401H271.118C272.078 99.8401 272.958 100.04 273.758 100.44C274.558 100.84 275.248 101.37 275.828 102.03C276.428 102.69 276.888 103.43 277.208 104.25C277.548 105.07 277.718 105.91 277.718 106.77C277.718 107.71 277.548 108.61 277.208 109.47C276.868 110.33 276.378 111.07 275.738 111.69C275.118 112.31 274.388 112.76 273.548 113.04L278.558 121.14H274.778L270.158 113.73H265.208V121.14H261.848ZM265.208 110.76H271.088C271.708 110.76 272.258 110.58 272.738 110.22C273.218 109.86 273.598 109.38 273.878 108.78C274.158 108.16 274.298 107.49 274.298 106.77C274.298 106.03 274.138 105.37 273.818 104.79C273.498 104.19 273.078 103.71 272.558 103.35C272.058 102.99 271.508 102.81 270.908 102.81H265.208V110.76ZM288.132 99.8401H291.312L299.592 121.14H296.052L293.802 115.35H285.582L283.362 121.14H279.792L288.132 99.8401ZM293.142 112.86L289.722 103.53L286.182 112.86H293.142ZM302.526 121.14V99.8401H305.886V121.14H302.526ZM323.6 104.85C323.4 104.63 323.11 104.4 322.73 104.16C322.35 103.9 321.9 103.66 321.38 103.44C320.86 103.22 320.3 103.04 319.7 102.9C319.1 102.76 318.48 102.69 317.84 102.69C316.44 102.69 315.4 102.95 314.72 103.47C314.04 103.99 313.7 104.71 313.7 105.63C313.7 106.31 313.89 106.85 314.27 107.25C314.65 107.63 315.23 107.95 316.01 108.21C316.79 108.47 317.77 108.75 318.95 109.05C320.39 109.39 321.64 109.8 322.7 110.28C323.76 110.74 324.57 111.36 325.13 112.14C325.69 112.92 325.97 113.95 325.97 115.23C325.97 116.31 325.77 117.24 325.37 118.02C324.97 118.8 324.41 119.44 323.69 119.94C322.97 120.42 322.14 120.78 321.2 121.02C320.26 121.24 319.25 121.35 318.17 121.35C317.11 121.35 316.05 121.24 314.99 121.02C313.95 120.8 312.95 120.48 311.99 120.06C311.05 119.62 310.18 119.09 309.38 118.47L310.91 115.59C311.17 115.85 311.54 116.14 312.02 116.46C312.52 116.76 313.09 117.05 313.73 117.33C314.39 117.61 315.1 117.85 315.86 118.05C316.64 118.23 317.43 118.32 318.23 118.32C319.57 118.32 320.59 118.09 321.29 117.63C322.01 117.15 322.37 116.47 322.37 115.59C322.37 114.87 322.14 114.3 321.68 113.88C321.22 113.44 320.55 113.07 319.67 112.77C318.79 112.47 317.74 112.17 316.52 111.87C315.12 111.49 313.95 111.08 313.01 110.64C312.07 110.18 311.36 109.6 310.88 108.9C310.42 108.18 310.19 107.27 310.19 106.17C310.19 104.77 310.53 103.59 311.21 102.63C311.89 101.65 312.81 100.92 313.97 100.44C315.15 99.9401 316.47 99.6901 317.93 99.6901C318.89 99.6901 319.8 99.8001 320.66 100.02C321.52 100.22 322.32 100.5 323.06 100.86C323.82 101.22 324.51 101.63 325.13 102.09L323.6 104.85ZM337.352 121.14V99.8401H346.292C347.252 99.8401 348.132 100.04 348.932 100.44C349.732 100.84 350.432 101.37 351.032 102.03C351.632 102.69 352.092 103.43 352.412 104.25C352.732 105.07 352.892 105.91 352.892 106.77C352.892 107.95 352.622 109.08 352.082 110.16C351.562 111.22 350.812 112.08 349.832 112.74C348.872 113.4 347.752 113.73 346.472 113.73H340.712V121.14H337.352ZM340.712 110.76H346.262C346.902 110.76 347.462 110.59 347.942 110.25C348.422 109.89 348.792 109.41 349.052 108.81C349.332 108.21 349.472 107.53 349.472 106.77C349.472 105.99 349.312 105.3 348.992 104.7C348.672 104.1 348.252 103.64 347.732 103.32C347.232 102.98 346.682 102.81 346.082 102.81H340.712V110.76ZM370.953 118.17V121.14H356.343V99.8401H370.683V102.81H359.703V108.87H369.213V111.66H359.703V118.17H370.953ZM374.719 121.14V99.8401H383.989C384.949 99.8401 385.829 100.04 386.629 100.44C387.429 100.84 388.119 101.37 388.699 102.03C389.299 102.69 389.759 103.43 390.079 104.25C390.419 105.07 390.589 105.91 390.589 106.77C390.589 107.71 390.419 108.61 390.079 109.47C389.739 110.33 389.249 111.07 388.609 111.69C387.989 112.31 387.259 112.76 386.419 113.04L391.429 121.14H387.649L383.029 113.73H378.079V121.14H374.719ZM378.079 110.76H383.959C384.579 110.76 385.129 110.58 385.609 110.22C386.089 109.86 386.469 109.38 386.749 108.78C387.029 108.16 387.169 107.49 387.169 106.77C387.169 106.03 387.009 105.37 386.689 104.79C386.369 104.19 385.949 103.71 385.429 103.35C384.929 102.99 384.379 102.81 383.779 102.81H378.079V110.76ZM407.453 104.85C407.253 104.63 406.963 104.4 406.583 104.16C406.203 103.9 405.753 103.66 405.233 103.44C404.713 103.22 404.153 103.04 403.553 102.9C402.953 102.76 402.333 102.69 401.693 102.69C400.293 102.69 399.253 102.95 398.573 103.47C397.893 103.99 397.553 104.71 397.553 105.63C397.553 106.31 397.743 106.85 398.123 107.25C398.503 107.63 399.083 107.95 399.863 108.21C400.643 108.47 401.623 108.75 402.803 109.05C404.243 109.39 405.493 109.8 406.553 110.28C407.613 110.74 408.423 111.36 408.983 112.14C409.543 112.92 409.823 113.95 409.823 115.23C409.823 116.31 409.623 117.24 409.223 118.02C408.823 118.8 408.263 119.44 407.543 119.94C406.823 120.42 405.993 120.78 405.053 121.02C404.113 121.24 403.103 121.35 402.023 121.35C400.963 121.35 399.903 121.24 398.843 121.02C397.803 120.8 396.803 120.48 395.843 120.06C394.903 119.62 394.033 119.09 393.233 118.47L394.763 115.59C395.023 115.85 395.393 116.14 395.873 116.46C396.373 116.76 396.943 117.05 397.583 117.33C398.243 117.61 398.953 117.85 399.713 118.05C400.493 118.23 401.283 118.32 402.083 118.32C403.423 118.32 404.443 118.09 405.143 117.63C405.863 117.15 406.223 116.47 406.223 115.59C406.223 114.87 405.993 114.3 405.533 113.88C405.073 113.44 404.403 113.07 403.523 112.77C402.643 112.47 401.593 112.17 400.373 111.87C398.973 111.49 397.803 111.08 396.863 110.64C395.923 110.18 395.213 109.6 394.733 108.9C394.273 108.18 394.043 107.27 394.043 106.17C394.043 104.77 394.383 103.59 395.063 102.63C395.743 101.65 396.663 100.92 397.823 100.44C399.003 99.9401 400.323 99.6901 401.783 99.6901C402.743 99.6901 403.653 99.8001 404.513 100.02C405.373 100.22 406.173 100.5 406.913 100.86C407.673 101.22 408.363 101.63 408.983 102.09L407.453 104.85ZM422.343 121.29C420.803 121.29 419.413 120.99 418.173 120.39C416.933 119.79 415.863 118.98 414.963 117.96C414.063 116.92 413.363 115.76 412.863 114.48C412.383 113.18 412.143 111.85 412.143 110.49C412.143 109.07 412.403 107.72 412.923 106.44C413.443 105.14 414.163 103.99 415.083 102.99C416.003 101.97 417.083 101.17 418.323 100.59C419.583 99.9901 420.943 99.6901 422.403 99.6901C423.923 99.6901 425.303 100 426.543 100.62C427.803 101.24 428.873 102.07 429.753 103.11C430.653 104.15 431.343 105.31 431.823 106.59C432.323 107.87 432.573 109.18 432.573 110.52C432.573 111.94 432.313 113.3 431.793 114.6C431.293 115.88 430.583 117.03 429.663 118.05C428.743 119.05 427.653 119.84 426.393 120.42C425.153 121 423.803 121.29 422.343 121.29ZM415.563 110.49C415.563 111.49 415.723 112.46 416.043 113.4C416.363 114.34 416.813 115.18 417.393 115.92C417.993 116.64 418.713 117.21 419.553 117.63C420.393 118.05 421.333 118.26 422.373 118.26C423.453 118.26 424.413 118.04 425.253 117.6C426.093 117.16 426.793 116.57 427.353 115.83C427.933 115.07 428.373 114.23 428.673 113.31C428.973 112.37 429.123 111.43 429.123 110.49C429.123 109.49 428.963 108.53 428.643 107.61C428.343 106.67 427.893 105.84 427.293 105.12C426.693 104.38 425.973 103.8 425.133 103.38C424.313 102.96 423.393 102.75 422.373 102.75C421.293 102.75 420.333 102.97 419.493 103.41C418.653 103.85 417.943 104.44 417.363 105.18C416.783 105.92 416.333 106.75 416.013 107.67C415.713 108.59 415.563 109.53 415.563 110.49ZM439.712 106.08V121.14H436.352V99.8401H439.112L451.172 115.23V99.8701H454.562V121.14H451.622L439.712 106.08ZM465.8 99.8401H468.98L477.26 121.14H473.72L471.47 115.35H463.25L461.03 121.14H457.46L465.8 99.8401ZM470.81 112.86L467.39 103.53L463.85 112.86H470.81ZM480.194 121.14V99.8401H483.554V118.17H494.984V121.14H480.194ZM496.543 118.56L509.413 102.81H496.843V99.8401H513.403V102.42L500.863 118.17H513.433V121.14H496.543V118.56ZM517.18 121.14V99.8401H520.54V121.14H517.18ZM531.804 99.8401H534.984L543.264 121.14H539.724L537.474 115.35H529.254L527.034 121.14H523.464L531.804 99.8401ZM536.814 112.86L533.394 103.53L529.854 112.86H536.814ZM546.198 121.14V99.8401H553.758C556.058 99.8401 557.978 100.32 559.518 101.28C561.058 102.22 562.208 103.5 562.968 105.12C563.748 106.72 564.138 108.5 564.138 110.46C564.138 112.62 563.708 114.5 562.848 116.1C562.008 117.7 560.808 118.94 559.248 119.82C557.688 120.7 555.858 121.14 553.758 121.14H546.198ZM560.718 110.46C560.718 108.96 560.438 107.64 559.878 106.5C559.338 105.34 558.548 104.44 557.508 103.8C556.488 103.14 555.238 102.81 553.758 102.81H549.558V118.17H553.758C555.258 118.17 556.518 117.83 557.538 117.15C558.578 116.47 559.368 115.55 559.908 114.39C560.448 113.23 560.718 111.92 560.718 110.46ZM576.823 121.29C575.283 121.29 573.893 120.99 572.653 120.39C571.413 119.79 570.343 118.98 569.443 117.96C568.543 116.92 567.843 115.76 567.343 114.48C566.863 113.18 566.623 111.85 566.623 110.49C566.623 109.07 566.883 107.72 567.403 106.44C567.923 105.14 568.643 103.99 569.563 102.99C570.483 101.97 571.563 101.17 572.803 100.59C574.063 99.9901 575.423 99.6901 576.883 99.6901C578.403 99.6901 579.783 100 581.023 100.62C582.283 101.24 583.353 102.07 584.233 103.11C585.133 104.15 585.823 105.31 586.303 106.59C586.803 107.87 587.053 109.18 587.053 110.52C587.053 111.94 586.793 113.3 586.273 114.6C585.773 115.88 585.063 117.03 584.143 118.05C583.223 119.05 582.133 119.84 580.873 120.42C579.633 121 578.283 121.29 576.823 121.29ZM570.043 110.49C570.043 111.49 570.203 112.46 570.523 113.4C570.843 114.34 571.293 115.18 571.873 115.92C572.473 116.64 573.193 117.21 574.033 117.63C574.873 118.05 575.813 118.26 576.853 118.26C577.933 118.26 578.893 118.04 579.733 117.6C580.573 117.16 581.273 116.57 581.833 115.83C582.413 115.07 582.853 114.23 583.153 113.31C583.453 112.37 583.603 111.43 583.603 110.49C583.603 109.49 583.443 108.53 583.123 107.61C582.823 106.67 582.373 105.84 581.773 105.12C581.173 104.38 580.453 103.8 579.613 103.38C578.793 102.96 577.873 102.75 576.853 102.75C575.773 102.75 574.813 102.97 573.973 103.41C573.133 103.85 572.423 104.44 571.843 105.18C571.263 105.92 570.813 106.75 570.493 107.67C570.193 108.59 570.043 109.53 570.043 110.49ZM603.402 104.85C603.202 104.63 602.912 104.4 602.532 104.16C602.152 103.9 601.702 103.66 601.182 103.44C600.662 103.22 600.102 103.04 599.502 102.9C598.902 102.76 598.282 102.69 597.642 102.69C596.242 102.69 595.202 102.95 594.522 103.47C593.842 103.99 593.502 104.71 593.502 105.63C593.502 106.31 593.692 106.85 594.072 107.25C594.452 107.63 595.032 107.95 595.812 108.21C596.592 108.47 597.572 108.75 598.752 109.05C600.192 109.39 601.442 109.8 602.502 110.28C603.562 110.74 604.372 111.36 604.932 112.14C605.492 112.92 605.772 113.95 605.772 115.23C605.772 116.31 605.572 117.24 605.172 118.02C604.772 118.8 604.212 119.44 603.492 119.94C602.772 120.42 601.942 120.78 601.002 121.02C600.062 121.24 599.052 121.35 597.972 121.35C596.912 121.35 595.852 121.24 594.792 121.02C593.752 120.8 592.752 120.48 591.792 120.06C590.852 119.62 589.982 119.09 589.182 118.47L590.712 115.59C590.972 115.85 591.342 116.14 591.822 116.46C592.322 116.76 592.892 117.05 593.532 117.33C594.192 117.61 594.902 117.85 595.662 118.05C596.442 118.23 597.232 118.32 598.032 118.32C599.372 118.32 600.392 118.09 601.092 117.63C601.812 117.15 602.172 116.47 602.172 115.59C602.172 114.87 601.942 114.3 601.482 113.88C601.022 113.44 600.352 113.07 599.472 112.77C598.592 112.47 597.542 112.17 596.322 111.87C594.922 111.49 593.752 111.08 592.812 110.64C591.872 110.18 591.162 109.6 590.682 108.9C590.222 108.18 589.992 107.27 589.992 106.17C589.992 104.77 590.332 103.59 591.012 102.63C591.692 101.65 592.612 100.92 593.772 100.44C594.952 99.9401 596.272 99.6901 597.732 99.6901C598.692 99.6901 599.602 99.8001 600.462 100.02C601.322 100.22 602.122 100.5 602.862 100.86C603.622 101.22 604.312 101.63 604.932 102.09L603.402 104.85Z" fill="black"/>
<path d="M197.001 3.22443L202 3.1404L204 122.14L199.001 122.224L197.001 3.22443Z" fill="#1E1E1E"/>
<path d="M198.109 0L202 3.1404L85 148.14L81.1088 145L198.109 0Z" fill="#1E1E1E"/>
<path d="M181.109 0L185 3.13981L68 148.14L64.1088 145L181.109 0Z" fill="#1E1E1E"/>
<path d="M160.109 0L164 3.13981L47 148.14L43.1088 145L160.109 0Z" fill="#1E1E1E"/>
<path d="M140.109 0L144 3.13981L27 148.14L23.1088 145L140.109 0Z" fill="#1E1E1E"/>
<path d="M122.109 0L126 3.13981L9 148.14L5.10878 145L122.109 0Z" fill="#1E1E1E"/>
<path d="M180.011 3.47561L185 3.13981L193 122.14L188.011 122.476L180.011 3.47561Z" fill="#1E1E1E"/>
<path d="M158.083 4.04909L163 3.14013L185 122.14L180.083 123.049L158.083 4.04909Z" fill="#1E1E1E"/>
<path d="M135.214 4.588L140 3.14019L176 122.14L171.214 123.588L135.214 4.588Z" fill="#1E1E1E"/>
<path d="M117.323 4.90835L122 3.13982L167 122.14L162.323 123.909L117.323 4.90835Z" fill="#1E1E1E"/>
<path d="M0 145.14H92V148.14H0V145.14Z" fill="#1E1E1E"/>
<path d="M4 141.14H13V151.14H4V141.14Z" fill="#1E1E1E"/>
<path d="M160 117.14H167V125.14H160V117.14Z" fill="#1E1E1E"/>
<path d="M169 117.14H176V125.14H169V117.14Z" fill="#1E1E1E"/>
<path d="M178 117.14H185V125.14H178V117.14Z" fill="#1E1E1E"/>
<path d="M187 117.14H194V125.14H187V117.14Z" fill="#1E1E1E"/>
<path d="M198 117.14H205V125.14H198V117.14Z" fill="#1E1E1E"/>
<path d="M22 141.14H31V151.14H22V141.14Z" fill="#1E1E1E"/>
<path d="M42 141.14H51V151.14H42V141.14Z" fill="#1E1E1E"/>
<path d="M63 141.14H72V151.14H63V141.14Z" fill="#1E1E1E"/>
<path d="M81 141.14H90V151.14H81V141.14Z" fill="#1E1E1E"/>
<path d="M158 119.14H207V122.14H158V119.14Z" fill="#1E1E1E"/>
<path d="M118 0.140176H204V7.14018H118V0.140176Z" fill="#1E1E1E"/>
</svg>
