<svg width="18" height="18" viewBox="0 0 18 18" fill="none" xmlns="http://www.w3.org/2000/svg">
<path d="M8.9998 1.7998C5.0236 1.7998 1.7998 5.0236 1.7998 8.9998C1.7998 10.3505 2.17921 11.6098 2.82637 12.69L1.86426 16.1998L5.44902 15.2588C6.49742 15.8548 7.7077 16.1998 8.9998 16.1998C12.976 16.1998 16.1998 12.976 16.1998 8.9998C16.1998 5.0236 12.976 1.7998 8.9998 1.7998ZM6.53535 5.64121C6.65235 5.64121 6.77257 5.6405 6.87637 5.6459C7.00477 5.6489 7.14452 5.6583 7.27832 5.9541C7.43732 6.3057 7.78353 7.18775 7.82793 7.27715C7.87233 7.36655 7.90379 7.47187 7.84199 7.58887C7.78319 7.70887 7.75261 7.78149 7.66621 7.88769C7.57681 7.99089 7.47885 8.11907 7.39785 8.19707C7.30845 8.28647 7.21614 8.38449 7.31934 8.56269C7.42254 8.74089 7.78094 9.32508 8.31074 9.79668C8.99174 10.4051 9.56632 10.592 9.74512 10.6814C9.92392 10.7708 10.0275 10.7569 10.1307 10.6369C10.2369 10.5199 10.5767 10.1184 10.6967 9.93965C10.8137 9.76085 10.9331 9.79179 11.0951 9.85059C11.2595 9.90939 12.1362 10.3413 12.315 10.4307C12.4938 10.5201 12.6111 10.5643 12.6561 10.6369C12.7023 10.7119 12.7023 11.069 12.5541 11.4854C12.4059 11.9012 11.6782 12.3032 11.3518 12.3314C11.0224 12.362 10.7149 12.4795 9.21074 11.8873C7.39634 11.1727 6.2521 9.31434 6.1627 9.19434C6.0733 9.07734 5.43613 8.22815 5.43613 7.35215C5.43613 6.47315 5.897 6.04267 6.0584 5.86387C6.2228 5.68507 6.41535 5.64121 6.53535 5.64121Z" fill="black"/>
</svg>
